<?xml version="1.0" standalone="no"?>
<!DOCTYPE svg PUBLIC "-//W3C//DTD SVG 20010904//EN"
 "http://www.w3.org/TR/2001/REC-SVG-20010904/DTD/svg10.dtd">
<svg version="1.0" xmlns="http://www.w3.org/2000/svg"
 width="1500.000000pt" height="1500.000000pt" viewBox="0 0 1500.000000 1500.000000"
 preserveAspectRatio="xMidYMid meet">

<g transform="translate(0.000000,1500.000000) scale(0.100000,-0.100000)"
fill="#000000" stroke="none">
<path d="M5425 8439 c-227 -31 -412 -125 -569 -289 -171 -179 -244 -383 -233
-649 10 -238 75 -392 237 -564 145 -154 309 -243 517 -283 131 -25 347 -15
468 20 313 92 551 326 637 623 20 67 23 101 23 248 0 147 -3 181 -23 248 -71
245 -260 460 -501 570 -150 68 -384 100 -556 76z m344 -294 c204 -65 361 -231
416 -441 18 -70 21 -226 5 -304 -41 -197 -212 -387 -410 -457 -100 -35 -246
-43 -354 -19 -235 53 -432 245 -486 476 -8 30 -13 96 -13 145 0 146 38 263
123 377 71 95 204 189 320 227 113 36 277 34 399 -4z"/>
<path d="M9621 8438 c-184 -23 -371 -112 -509 -242 -135 -128 -215 -259 -258
-421 -26 -99 -27 -360 -1 -460 27 -102 107 -260 171 -337 121 -146 303 -263
481 -309 115 -30 306 -37 416 -14 173 34 357 123 475 228 l55 49 -38 42 c-21
23 -61 67 -90 99 l-52 57 -45 -39 c-120 -104 -264 -161 -421 -168 -189 -9
-338 44 -467 165 -140 131 -199 266 -201 452 -1 177 48 309 159 429 78 84 165
141 269 177 70 25 95 28 200 28 103 0 132 -4 200 -27 91 -30 175 -78 251 -142
29 -25 54 -45 57 -45 5 0 147 175 161 198 10 17 -22 52 -99 107 -204 145 -453
206 -714 173z"/>
<path d="M3050 7545 l0 -895 150 0 150 0 0 269 0 269 293 4 c258 4 301 7 370
26 226 62 376 208 433 422 24 90 24 282 0 370 -49 182 -177 316 -363 381 -118
41 -224 49 -640 49 l-393 0 0 -895z m818 615 c152 -25 251 -94 288 -201 22
-63 25 -201 6 -265 -28 -96 -101 -166 -212 -205 -60 -21 -85 -23 -332 -27
l-268 -4 0 356 0 356 228 0 c125 0 255 -5 290 -10z"/>
<path d="M6840 7545 l0 -895 535 0 535 0 0 135 0 135 -385 0 -385 0 0 760 0
760 -150 0 -150 0 0 -895z"/>
<path d="M8200 7545 l0 -895 150 0 150 0 0 895 0 895 -150 0 -150 0 0 -895z"/>
<path d="M10760 7545 l0 -895 655 0 655 0 0 135 0 135 -505 0 -505 0 0 245 0
245 435 0 435 0 0 140 0 140 -435 0 -435 0 0 240 0 240 490 0 490 0 0 135 0
135 -640 0 -640 0 0 -895z"/>
<path d="M4500 5906 c0 -152 18 -172 22 -25 l3 101 43 -76 c24 -42 47 -76 52
-76 4 0 27 34 51 76 l44 77 3 -102 c4 -146 22 -127 22 24 0 93 -3 125 -12 125
-7 0 -33 -36 -57 -80 -25 -44 -48 -79 -53 -78 -5 2 -28 37 -51 77 -23 41 -48
76 -54 79 -10 3 -13 -26 -13 -122z"/>
<path d="M5007 6023 c-8 -13 -97 -232 -97 -238 0 -3 5 -5 10 -5 6 0 17 18 26
40 l16 40 58 0 c57 0 57 0 75 -40 17 -39 36 -53 34 -27 0 6 -22 61 -47 121
-44 101 -63 129 -75 109z m63 -140 c0 -2 -22 -3 -50 -3 -27 0 -50 2 -50 4 0 2
12 30 26 62 l26 59 24 -59 c13 -33 24 -61 24 -63z"/>
<path d="M5300 5905 c0 -77 4 -125 10 -125 6 0 10 40 10 100 0 55 3 100 8 99
4 0 42 -45 85 -100 42 -54 82 -99 87 -99 6 0 10 49 10 125 0 152 -18 170 -22
23 l-3 -103 -80 102 c-44 56 -86 102 -92 102 -10 1 -13 -30 -13 -124z"/>
<path d="M5777 6023 c-8 -13 -97 -232 -97 -238 0 -3 5 -5 10 -5 6 0 17 18 26
40 l16 40 58 0 c57 0 57 0 75 -40 17 -39 36 -53 34 -27 0 6 -22 61 -47 121
-44 101 -63 129 -75 109z m63 -140 c0 -2 -22 -3 -50 -3 -27 0 -50 2 -50 4 0 2
12 30 26 62 l26 59 24 -59 c13 -33 24 -61 24 -63z"/>
<path d="M6098 6003 c-35 -37 -50 -79 -42 -117 19 -86 96 -128 167 -92 23 13
27 13 27 0 0 -8 5 -14 10 -14 6 0 10 27 10 60 l0 60 -37 -1 c-31 -2 -33 -3
-10 -6 22 -4 27 -9 27 -34 0 -24 -7 -33 -34 -46 -98 -46 -183 80 -110 166 21
25 33 31 65 31 26 0 46 -7 59 -20 24 -24 30 -25 30 -6 0 25 -42 46 -90 46 -37
0 -51 -5 -72 -27z"/>
<path d="M6450 5905 l0 -125 85 0 c50 0 85 4 85 10 0 6 -32 10 -75 10 l-75 0
0 50 0 50 65 0 c37 0 65 4 65 10 0 6 -28 10 -65 10 l-65 0 0 45 0 45 69 0 c39
0 73 5 76 10 4 6 -25 10 -79 10 l-86 0 0 -125z"/>
<path d="M6790 5905 c0 -104 2 -125 15 -125 12 0 15 18 15 103 l0 102 43 -74
c23 -41 47 -76 52 -78 6 -2 31 32 55 74 l45 78 3 -102 c4 -148 22 -130 22 22
0 97 -3 125 -13 125 -7 0 -35 -39 -62 -86 l-48 -86 -49 86 c-69 120 -78 116
-78 -39z"/>
<path d="M7230 5905 l0 -125 85 0 c50 0 85 4 85 10 0 6 -30 10 -70 10 l-70 0
0 50 0 50 60 0 c33 0 60 4 60 10 0 6 -27 10 -60 10 l-60 0 0 45 0 45 70 0 c40
0 70 4 70 10 0 6 -35 10 -85 10 l-85 0 0 -125z"/>
<path d="M7580 5905 c0 -151 18 -170 22 -24 l3 102 80 -102 c44 -55 86 -101
93 -101 9 0 12 32 12 125 0 103 -3 125 -15 125 -11 0 -15 -20 -17 -100 l-3
-100 -79 100 c-43 55 -83 100 -88 100 -4 0 -8 -56 -8 -125z"/>
<path d="M7950 6020 c0 -5 20 -10 45 -10 l45 0 0 -115 c0 -96 3 -115 15 -115
12 0 15 19 15 115 l0 115 45 0 c25 0 45 5 45 10 0 6 -42 10 -105 10 -63 0
-105 -4 -105 -10z"/>
<path d="M8552 6014 c-15 -10 -22 -25 -22 -49 0 -39 5 -43 85 -70 48 -16 61
-25 63 -43 2 -13 -2 -30 -8 -38 -16 -18 -77 -18 -110 1 -30 17 -40 18 -40 5 0
-17 57 -40 98 -40 67 0 112 53 83 98 -5 8 -37 24 -71 36 -70 23 -92 45 -74 74
13 20 84 28 114 12 22 -12 27 -1 8 18 -17 17 -100 15 -126 -4z"/>
<path d="M8871 6008 c7 -12 27 -46 46 -75 26 -41 33 -62 33 -103 0 -38 4 -50
15 -50 11 0 15 13 15 53 0 38 6 62 23 87 56 84 69 110 55 110 -8 0 -31 -30
-53 -66 -43 -75 -40 -76 -93 18 -15 27 -33 48 -40 48 -10 0 -10 -5 -1 -22z"/>
<path d="M9252 6014 c-15 -10 -22 -25 -22 -49 0 -39 5 -43 85 -70 48 -16 61
-25 63 -43 2 -13 -2 -30 -8 -38 -16 -18 -77 -18 -110 1 -30 17 -40 18 -40 5 0
-17 57 -40 98 -40 67 0 112 53 83 98 -5 8 -37 24 -71 36 -70 23 -92 45 -74 74
13 20 84 28 114 12 22 -12 27 -1 8 18 -17 17 -100 15 -126 -4z"/>
<path d="M9555 6020 c3 -5 24 -10 46 -10 l39 0 0 -115 c0 -96 3 -115 15 -115
12 0 15 19 15 115 l0 115 45 0 c25 0 45 5 45 10 0 6 -42 10 -106 10 -67 0
-103 -4 -99 -10z"/>
<path d="M9920 5905 l0 -125 85 0 c50 0 85 4 85 10 0 6 -30 10 -70 10 l-70 0
0 50 0 50 60 0 c33 0 60 4 60 10 0 6 -27 10 -60 10 l-60 0 0 45 0 45 70 0 c40
0 70 4 70 10 0 6 -35 10 -85 10 l-85 0 0 -125z"/>
<path d="M10270 5905 c0 -152 18 -170 22 -23 l3 103 44 -78 c25 -42 48 -77 52
-77 5 0 29 35 53 78 l46 77 0 -102 c0 -85 3 -103 15 -103 13 0 15 21 15 125 0
154 -10 160 -76 45 -25 -44 -49 -80 -52 -80 -4 0 -27 36 -52 80 -25 44 -51 80
-57 80 -10 0 -13 -32 -13 -125z"/>
</g>
</svg>
